<svg width="22" height="23" viewBox="0 0 22 23" fill="none" xmlns="http://www.w3.org/2000/svg">
<path d="M21.3489 3.92792C22.2079 3.02991 22.2079 1.57153 21.3489 0.673512C20.4899 -0.224504 19.095 -0.224504 18.236 0.673512L11 8.24559L3.75714 0.680696C2.89817 -0.21732 1.5032 -0.21732 0.644229 0.680696C-0.214743 1.57871 -0.214743 3.03709 0.644229 3.93511L7.88708 11.5L0.651101 19.0721C-0.207871 19.9701 -0.207871 21.4285 0.651101 22.3265C1.51007 23.2245 2.90504 23.2245 3.76402 22.3265L11 14.7544L18.2429 22.3193C19.1018 23.2173 20.4968 23.2173 21.3558 22.3193C22.2147 21.4213 22.2147 19.9629 21.3558 19.0649L14.1129 11.5L21.3489 3.92792Z" fill="#8F3232"/>
</svg>
