<?xml version="1.0" encoding="UTF-8" standalone="no"?>
<svg xmlns="http://www.w3.org/2000/svg" version="1.2" baseProfile="tiny" viewBox="0 0 128 128">
<g stroke-width="2.00" fill="none" stroke-linecap="butt">
<path stroke="#91a5f0" vector-effect="non-scaling-stroke" d="
  M 34.35 64.42
  Q 48.44 73.74 63.23 81.87
  A 0.68 0.68 0.0 0 0 64.02 81.78
  Q 64.16 81.65 64.25 81.46"
/>
<path stroke="#728bec" vector-effect="non-scaling-stroke" d="
  M 64.25 81.46
  L 64.77 81.48
  A 1.75 1.68 -58.2 0 0 65.71 81.24
  L 93.25 65.04"
/>
<path stroke="#91a5f0" vector-effect="non-scaling-stroke" d="
  M 93.25 65.04
  Q 93.42 64.97 93.54 64.85
  A 0.48 0.48 0.0 0 0 93.61 64.25
  Q 79.54 41.38 65.52 18.49
  Q 65.14 17.88 64.54 17.50"
/>
<path stroke="#b1bff5" vector-effect="non-scaling-stroke" d="
  M 64.54 17.50
  Q 64.52 16.99 64.25 16.73
  A 0.46 0.46 0.0 0 0 63.55 16.83
  L 34.35 64.42"
/>
<path stroke="#e0e5fb" vector-effect="non-scaling-stroke" d="
  M 64.54 17.50
  Q 64.22 18.49 64.21 19.51
  Q 64.01 34.99 63.99 50.49
  A 1.21 1.18 68.3 0 1 63.63 51.35
  C 62.99 51.95 61.61 52.24 61.02 52.51
  Q 47.98 58.50 34.35 64.42"
/>
<path stroke="#a1b1f2" vector-effect="non-scaling-stroke" d="
  M 93.25 65.04
  C 92.91 64.59 92.78 64.27 92.23 64.02
  Q 78.48 57.90 64.64 51.70
  A 0.40 0.40 0.0 0 0 64.08 52.07
  L 64.25 81.46"
/>
<path stroke="#91a5f0" vector-effect="non-scaling-stroke" d="
  M 64.09 111.46
  L 93.34 71.25
  A 0.23 0.23 0.0 0 0 93.04 70.92
  L 63.75 87.79"
/>
<path stroke="#b1bff5" vector-effect="non-scaling-stroke" d="
  M 63.75 87.79
  L 34.76 71.01
  Q 34.32 70.76 34.61 71.18
  Q 48.90 91.58 64.09 111.46"
/>
<path stroke="#e0e5fb" vector-effect="non-scaling-stroke" d="
  M 63.75 87.79
  L 64.09 111.46"
/>
</g>
<path fill="#627eea" d="
  M 62.56 0.00
  L 65.56 0.00
  C 100.49 1.88 126.90 28.00 128.00 63.06
  L 128.00 65.31
  C 126.59 100.16 100.24 126.42 65.44 128.00
  L 62.44 128.00
  C 27.42 126.01 1.11 100.07 0.00 64.94
  L 0.00 62.94
  C 1.20 27.88 27.63 1.75 62.56 0.00
  Z
  M 34.35 64.42
  Q 48.44 73.74 63.23 81.87
  A 0.68 0.68 0.0 0 0 64.02 81.78
  Q 64.16 81.65 64.25 81.46
  L 64.77 81.48
  A 1.75 1.68 -58.2 0 0 65.71 81.24
  L 93.25 65.04
  Q 93.42 64.97 93.54 64.85
  A 0.48 0.48 0.0 0 0 93.61 64.25
  Q 79.54 41.38 65.52 18.49
  Q 65.14 17.88 64.54 17.50
  Q 64.52 16.99 64.25 16.73
  A 0.46 0.46 0.0 0 0 63.55 16.83
  L 34.35 64.42
  Z
  M 64.09 111.46
  L 93.34 71.25
  A 0.23 0.23 0.0 0 0 93.04 70.92
  L 63.75 87.79
  L 34.76 71.01
  Q 34.32 70.76 34.61 71.18
  Q 48.90 91.58 64.09 111.46
  Z"
/>
<path fill="#ffffff" d="
  M 64.54 17.50
  Q 64.22 18.49 64.21 19.51
  Q 64.01 34.99 63.99 50.49
  A 1.21 1.18 68.3 0 1 63.63 51.35
  C 62.99 51.95 61.61 52.24 61.02 52.51
  Q 47.98 58.50 34.35 64.42
  L 63.55 16.83
  A 0.46 0.46 0.0 0 1 64.25 16.73
  Q 64.52 16.99 64.54 17.50
  Z"
/>
<path fill="#c0cbf6" d="
  M 64.54 17.50
  Q 65.14 17.88 65.52 18.49
  Q 79.54 41.38 93.61 64.25
  A 0.48 0.48 0.0 0 1 93.54 64.85
  Q 93.42 64.97 93.25 65.04
  C 92.91 64.59 92.78 64.27 92.23 64.02
  Q 78.48 57.90 64.64 51.70
  A 0.40 0.40 0.0 0 0 64.08 52.07
  L 64.25 81.46
  Q 64.16 81.65 64.02 81.78
  A 0.68 0.68 0.0 0 1 63.23 81.87
  Q 48.44 73.74 34.35 64.42
  Q 47.98 58.50 61.02 52.51
  C 61.61 52.24 62.99 51.95 63.63 51.35
  A 1.21 1.18 68.3 0 0 63.99 50.49
  Q 64.01 34.99 64.21 19.51
  Q 64.22 18.49 64.54 17.50
  Z"
/>
<path fill="#8197ee" d="
  M 93.25 65.04
  L 65.71 81.24
  A 1.75 1.68 -58.2 0 1 64.77 81.48
  L 64.25 81.46
  L 64.08 52.07
  A 0.40 0.40 0.0 0 1 64.64 51.70
  Q 78.48 57.90 92.23 64.02
  C 92.78 64.27 92.91 64.59 93.25 65.04
  Z"
/>
<path fill="#ffffff" d="
  M 63.75 87.79
  L 64.09 111.46
  Q 48.90 91.58 34.61 71.18
  Q 34.32 70.76 34.76 71.01
  L 63.75 87.79
  Z"
/>
<path fill="#c0cbf6" d="
  M 64.09 111.46
  L 63.75 87.79
  L 93.04 70.92
  A 0.23 0.23 0.0 0 1 93.34 71.25
  L 64.09 111.46
  Z"
/>
</svg>
