<?xml version="1.0" encoding="UTF-8" standalone="no"?>
<svg xmlns="http://www.w3.org/2000/svg" version="1.2" baseProfile="tiny" viewBox="0 0 267 256">
<path fill="#00DACC" d="
  M 149.81 110.30
  C 159.35 100.60 173.78 88.31 187.67 86.62
  A 1.16 1.16 0.0 0 1 188.59 88.63
  C 179.08 97.35 166.96 103.73 155.58 110.35
  Q 153.09 111.80 150.87 113.61
  Q 150.20 114.15 151.02 113.87
  Q 164.05 109.36 177.86 109.61
  A 1.16 1.16 0.0 0 1 179.00 110.77
  L 179.00 111.21
  Q 179.00 111.64 178.64 111.87
  Q 163.42 121.78 145.29 119.29
  Q 144.72 119.21 144.34 119.64
  L 131.10 134.81
  A 0.29 0.29 0.0 0 0 131.45 135.25
  Q 145.53 128.31 161.31 128.75
  A 1.08 1.07 -62.9 0 1 161.93 130.68
  Q 148.60 140.86 131.87 141.20
  C 130.69 141.22 128.68 140.79 127.03 141.08
  Q 126.44 141.18 126.14 141.69
  L 116.62 157.65
  A 0.49 0.49 0.0 0 0 117.19 158.36
  C 121.13 157.09 144.08 150.93 146.53 153.40
  Q 146.96 153.84 146.53 154.28
  C 138.74 162.41 125.85 163.92 115.01 162.29
  Q 114.45 162.20 114.23 162.73
  L 107.50 179.37
  A 0.40 0.40 0.0 0 0 108.09 179.86
  C 115.11 175.46 126.12 169.52 134.57 170.07
  A 2.02 2.01 12.4 0 1 136.32 172.80
  C 133.37 180.47 113.78 186.06 106.79 183.55
  Q 106.25 183.36 106.08 183.91
  C 101.18 200.45 97.35 215.63 87.93 230.38
  C 86.36 232.84 83.47 235.38 81.95 238.47
  A 0.85 0.84 -63.3 0 1 80.82 238.85
  C 16.11 205.63 -7.59 127.45 31.57 65.23
  C 63.17 15.03 127.58 -4.36 181.67 19.24
  C 252.80 50.27 276.74 139.22 230.52 202.01
  Q 206.20 235.06 164.96 246.57
  Q 164.48 246.70 164.09 246.40
  C 157.58 241.29 157.28 237.83 160.95 230.52
  C 167.09 218.26 172.48 205.26 175.54 191.89
  Q 176.79 186.43 180.79 182.35
  Q 181.15 181.98 181.67 181.98
  Q 195.79 181.85 209.68 179.96
  C 217.32 178.92 216.95 169.71 215.73 164.14
  C 215.13 161.40 218.69 158.75 219.96 156.37
  Q 220.18 155.97 219.87 155.62
  L 216.93 152.33
  Q 216.47 151.83 216.76 151.21
  C 217.65 149.32 220.65 147.83 220.37 145.62
  C 220.13 143.74 218.20 141.22 217.60 138.99
  Q 217.46 138.49 217.91 138.23
  C 221.13 136.38 227.79 133.18 227.78 128.88
  Q 227.78 128.37 227.37 128.05
  C 219.94 122.27 213.38 117.68 207.80 109.94
  C 205.19 106.31 207.98 98.49 209.59 94.72
  Q 209.79 94.25 209.54 93.81
  Q 204.33 84.92 199.09 76.05
  Q 198.20 74.54 197.33 71.52
  C 195.85 66.43 191.21 59.10 188.41 56.08
  C 181.96 49.12 161.88 46.92 152.87 46.47
  C 146.26 46.14 139.89 43.98 133.29 43.25
  C 119.93 41.78 106.71 46.30 96.35 54.73
  Q 94.71 56.07 93.13 57.08
  C 84.73 62.43 77.98 75.05 67.83 75.31
  Q 67.27 75.33 66.82 75.65
  Q 65.10 76.89 64.76 78.97
  Q 64.68 79.46 64.18 79.54
  Q 57.68 80.56 56.13 87.06
  Q 56.02 87.54 55.54 87.64
  L 50.18 88.83
  Q 48.60 89.18 50.16 89.59
  L 52.69 90.26
  Q 53.57 90.50 52.86 91.07
  C 45.64 96.97 39.43 102.81 41.64 113.23
  Q 41.72 113.63 41.44 113.92
  L 39.96 115.45
  Q 39.04 116.40 40.36 116.26
  C 42.29 116.05 42.63 117.16 41.86 118.67
  C 39.51 123.23 38.04 125.49 38.62 129.61
  Q 38.69 130.13 39.12 129.83
  L 39.82 129.35
  Q 40.53 128.87 40.66 129.72
  C 41.93 138.50 43.03 144.63 52.27 148.06
  Q 52.88 148.28 53.25 148.80
  L 54.67 150.73
  Q 55.02 151.21 55.07 151.80
  Q 55.71 158.99 59.43 165.18
  Q 59.72 165.66 60.25 165.85
  L 64.41 167.27
  Q 64.84 167.42 65.06 167.82
  C 69.97 176.88 70.81 188.33 82.39 191.35
  Q 84.57 191.91 86.16 193.02
  Q 92.25 197.26 99.54 199.47
  A 0.54 0.54 0.0 0 0 100.22 199.08
  L 104.38 180.52
  Q 104.47 180.09 104.15 179.78
  Q 93.52 169.77 90.49 156.00
  Q 89.88 153.24 91.90 152.49
  C 97.71 150.32 104.93 171.37 105.96 175.21
  Q 106.04 175.50 106.15 175.22
  L 111.30 162.32
  Q 111.50 161.80 111.37 161.26
  C 110.30 156.85 104.07 125.91 110.27 124.55
  C 116.19 123.25 116.24 148.62 116.17 151.95
  Q 116.16 152.43 116.41 152.02
  L 124.40 138.80
  Q 124.68 138.35 124.62 137.82
  C 123.68 129.41 123.28 117.91 125.44 109.71
  C 126.01 107.55 128.74 100.68 131.54 100.49
  A 1.10 1.09 -5.6 0 1 132.70 101.44
  Q 134.69 116.44 129.77 130.71
  Q 129.41 131.74 130.12 130.92
  L 140.84 118.51
  Q 141.14 118.17 141.19 117.71
  C 142.75 104.11 150.69 90.83 160.33 81.55
  A 1.16 1.15 74.1 0 1 162.26 82.63
  Q 159.03 97.73 149.55 109.81
  Q 149.45 109.93 149.50 110.21
  Q 149.56 110.55 149.81 110.30
  Z"
/>
</svg>
