<svg width="22" height="22" viewBox="0 0 22 22" fill="none" xmlns="http://www.w3.org/2000/svg">
<path d="M11 22C17.0751 22 22 17.0751 22 11C22 4.92487 17.0751 0 11 0C4.92487 0 0 4.92487 0 11C0 17.0751 4.92487 22 11 22Z" fill="#313042"/>
<path d="M8.79985 16.1857C8.87843 15.95 9.03557 15.7142 9.11414 15.4C9.11414 15.3214 9.11414 15.1642 9.03557 15.0857C8.56414 14.4571 8.407 13.75 8.56414 13.0428C8.56414 12.9642 8.56414 12.8857 8.64271 12.8857C8.64271 12.8071 8.72128 12.8071 8.72128 12.7285C9.27128 13.2785 9.42843 13.9857 9.507 14.6928C9.66414 14.3785 9.89986 14.0642 10.057 13.6714C10.057 13.5928 9.97843 13.5142 9.97843 13.4357C9.507 12.7285 9.42843 11.9428 9.74271 11.0785C10.2927 11.6285 10.4499 12.3357 10.4499 13.0428C10.6856 12.7285 10.8427 12.4142 11.0784 12.1785C11.0784 12.1 11.0784 12.0214 10.9999 11.9428C10.7641 11.2357 10.7641 10.5285 11.157 9.82139C11.2356 9.74282 11.2356 9.66425 11.3141 9.58568C11.707 10.2142 11.6284 10.8428 11.5499 11.4714H11.6284C11.7856 11.2357 11.9427 11.0785 12.0213 10.8428C12.3356 9.97853 12.807 9.34996 13.6713 8.9571C13.8284 8.87853 13.907 8.87853 14.0641 8.79996C14.0641 8.9571 14.0641 9.03568 13.9856 9.19282C13.7499 9.97853 13.1999 10.6071 12.4141 11C12.0999 11.1571 11.8641 11.3928 11.707 11.7071C12.3356 11.3928 12.9641 11.2357 13.7499 11.4714C13.5927 11.6285 13.5141 11.7071 13.357 11.7857C12.807 12.1785 12.1784 12.3357 11.5499 12.2571C11.3141 12.2571 11.2356 12.2571 11.157 12.4142C10.9999 12.65 10.8427 12.9642 10.6856 13.2785C11.3927 12.9642 12.0999 12.8071 12.8856 13.2C12.6499 13.3571 12.4927 13.5142 12.3356 13.5928C11.7856 13.8285 11.2356 13.9071 10.607 13.75C10.4499 13.6714 10.3713 13.75 10.2927 13.9071C10.1356 14.2214 9.97843 14.5357 9.74271 14.9285C10.4499 14.6142 11.157 14.3785 11.9427 14.6928L12.0213 14.7714C11.9427 14.85 11.8641 14.85 11.707 14.9285C11.0784 15.3214 10.4499 15.4785 9.74271 15.4C9.58557 15.3214 9.42843 15.4 9.42843 15.5571C9.19271 16.1857 8.957 16.8142 8.72128 17.3642C8.64271 17.6 8.48557 17.8357 8.32843 18.0714C8.24985 18.2285 8.09271 18.3071 7.93557 18.2285C5.81414 17.1285 4.32128 15.4785 3.77128 13.2C2.67128 9.03567 4.94985 4.87139 9.03557 3.69282C13.7499 2.27853 18.3856 5.42139 19.0927 9.97853C19.6427 13.6714 17.5213 17.2071 14.0641 18.4642C13.8284 18.5428 13.6713 18.6214 13.5141 18.4642C13.357 18.2285 13.357 18.0714 13.4356 17.8357C13.7499 17.05 13.9856 16.2642 14.2213 15.4785C14.3784 15.0071 14.5356 14.85 15.007 14.85C15.4784 14.7714 15.9499 14.7714 16.4213 14.6928C16.8141 14.6142 16.9713 14.4571 16.9713 14.0642C16.9713 13.9857 16.9713 13.8285 16.9713 13.75C16.8927 13.5928 16.9713 13.4357 17.1284 13.2785C17.2856 13.1214 17.2856 13.0428 17.1284 12.8857C17.0499 12.8071 17.0499 12.65 17.1284 12.65C17.2856 12.4928 17.2856 12.3357 17.1284 12.1785C16.9713 12.0214 17.0499 11.8642 17.207 11.7857C17.3641 11.7071 17.4427 11.6285 17.5213 11.4714C17.757 11.3142 17.6784 11.1571 17.5213 11C17.207 10.6857 16.8141 10.45 16.4999 10.1357C16.2641 9.97853 16.1856 9.66425 16.2641 9.42853C16.3427 8.9571 16.2641 8.56425 16.0284 8.17139C15.7927 7.8571 15.6356 7.46425 15.4784 7.14996C15.2427 6.59996 14.8499 6.2071 14.2999 6.04996C13.7499 5.89282 13.1999 5.81425 12.5713 5.73568C12.1784 5.6571 11.7856 5.6571 11.3927 5.57853C10.3713 5.42139 9.42843 5.6571 8.64271 6.36425C8.407 6.52139 8.17128 6.7571 7.857 6.83568C7.62128 6.91425 7.46414 7.14996 7.307 7.3071C7.22843 7.54282 7.07128 7.69996 6.83557 7.77853C6.44271 8.09282 6.04986 8.32853 5.73557 8.72139C5.657 8.87853 5.42128 8.9571 5.34271 9.03567C4.87128 9.34996 4.79271 9.66425 4.94986 10.1357C5.02843 10.45 5.107 10.7642 5.02843 11.0785C4.94985 11.3142 4.94985 11.6285 5.02843 11.8642C5.02843 12.1785 5.26414 12.4928 5.57843 12.5714C5.81414 12.65 5.97128 12.8071 5.97128 13.0428C6.04985 13.3571 6.207 13.6714 6.44271 13.9071C6.67843 14.1428 6.83557 14.4571 6.99271 14.7714C7.14985 15.1642 7.38557 15.4 7.77843 15.5571C8.17128 15.7142 8.48557 15.8714 8.87843 16.0285C8.64271 16.1071 8.72128 16.1071 8.79985 16.1857Z" fill="#00DACC"/>
</svg>
