<?xml version="1.0" encoding="UTF-8" standalone="no"?>
<svg xmlns="http://www.w3.org/2000/svg" version="1.2" baseProfile="tiny" viewBox="0 0 181 181">
<g stroke-width="2.00" fill="none" stroke-linecap="butt">
<path stroke="#93bae5" vector-effect="non-scaling-stroke" d="
  M 71.06 144.44
  C 21.66 124.45 21.55 58.68 70.63 38.62
  C 74.81 36.91 74.31 25.29 69.76 26.72
  C 31.62 38.76 11.73 81.33 27.91 118.39
  Q 39.80 145.62 69.14 155.99
  C 75.00 158.06 74.21 145.71 71.06 144.44"/>
<path stroke="#93bae5" vector-effect="non-scaling-stroke" d="
  M 155.49 74.12
  C 149.79 52.19 132.95 34.24 111.29 27.15
  C 104.90 25.06 106.11 35.07 107.84 37.69
  A 1.64 1.55 -4.3 0 0 108.58 38.29
  C 158.81 58.16 158.20 124.46 109.01 144.65
  C 105.54 146.08 105.04 157.86 110.92 155.91
  C 145.17 144.57 164.57 109.06 155.49 74.12"
/>
<path stroke="#93bae5" vector-effect="non-scaling-stroke" d="
  M 96.24 124.75
  C 107.56 123.01 116.23 113.73 114.80 102.15
  C 112.82 86.17 96.22 85.93 84.24 83.58
  C 78.00 82.35 75.58 74.71 79.72 70.29
  C 84.32 65.39 97.81 65.62 100.28 72.72
  Q 101.18 75.29 102.58 76.44
  A 1.37 1.36 -24.7 0 0 103.46 76.76
  L 110.29 76.74
  A 2.25 2.24 -0.8 0 0 112.53 74.45
  C 112.35 65.97 103.99 59.54 96.35 58.22
  A 0.62 0.61 4.1 0 1 95.84 57.64
  C 95.73 55.12 96.50 48.60 94.68 46.80
  A 1.44 1.44 0.0 0 0 93.82 46.40
  C 90.99 46.17 83.75 44.83 84.17 49.76
  C 84.37 52.24 84.27 54.83 84.16 57.35
  A 0.60 0.60 0.0 0 1 83.64 57.92
  C 73.01 59.56 65.68 66.64 66.08 77.81
  C 66.74 96.14 85.09 93.60 96.99 97.78
  C 105.05 100.62 104.26 111.41 97.17 114.43
  C 88.89 117.97 77.73 115.53 76.15 105.17
  A 1.69 1.68 85.8 0 0 74.50 103.74
  C 72.06 103.73 63.29 102.44 64.21 107.02
  Q 67.35 122.73 83.79 124.79
  A 0.52 0.52 0.0 0 1 84.25 125.31
  L 84.25 134.38
  A 2.13 2.13 0.0 0 0 86.38 136.51
  L 93.37 136.51
  A 2.38 2.38 0.0 0 0 95.75 134.13
  L 95.75 125.32
  A 0.58 0.58 0.0 0 1 96.24 124.75"
/>
</g>
<path fill="#2775ca" d="
  M 0.00 96.44
  L 0.00 84.19
  C 3.00 44.28 30.76 12.08 69.19 2.65
  C 115.21 -8.64 163.99 19.54 176.76 65.55
  C 191.11 117.25 158.80 169.33 106.56 179.25
  C 52.76 189.47 4.30 150.15 0.00 96.44
  Z
  M 71.06 144.44
  C 21.66 124.45 21.55 58.68 70.63 38.62
  C 74.81 36.91 74.31 25.29 69.76 26.72
  C 31.62 38.76 11.73 81.33 27.91 118.39
  Q 39.80 145.62 69.14 155.99
  C 75.00 158.06 74.21 145.71 71.06 144.44
  Z
  M 155.49 74.12
  C 149.79 52.19 132.95 34.24 111.29 27.15
  C 104.90 25.06 106.11 35.07 107.84 37.69
  A 1.64 1.55 -4.3 0 0 108.58 38.29
  C 158.81 58.16 158.20 124.46 109.01 144.65
  C 105.54 146.08 105.04 157.86 110.92 155.91
  C 145.17 144.57 164.57 109.06 155.49 74.12
  Z
  M 96.24 124.75
  C 107.56 123.01 116.23 113.73 114.80 102.15
  C 112.82 86.17 96.22 85.93 84.24 83.58
  C 78.00 82.35 75.58 74.71 79.72 70.29
  C 84.32 65.39 97.81 65.62 100.28 72.72
  Q 101.18 75.29 102.58 76.44
  A 1.37 1.36 -24.7 0 0 103.46 76.76
  L 110.29 76.74
  A 2.25 2.24 -0.8 0 0 112.53 74.45
  C 112.35 65.97 103.99 59.54 96.35 58.22
  A 0.62 0.61 4.1 0 1 95.84 57.64
  C 95.73 55.12 96.50 48.60 94.68 46.80
  A 1.44 1.44 0.0 0 0 93.82 46.40
  C 90.99 46.17 83.75 44.83 84.17 49.76
  C 84.37 52.24 84.27 54.83 84.16 57.35
  A 0.60 0.60 0.0 0 1 83.64 57.92
  C 73.01 59.56 65.68 66.64 66.08 77.81
  C 66.74 96.14 85.09 93.60 96.99 97.78
  C 105.05 100.62 104.26 111.41 97.17 114.43
  C 88.89 117.97 77.73 115.53 76.15 105.17
  A 1.69 1.68 85.8 0 0 74.50 103.74
  C 72.06 103.73 63.29 102.44 64.21 107.02
  Q 67.35 122.73 83.79 124.79
  A 0.52 0.52 0.0 0 1 84.25 125.31
  L 84.25 134.38
  A 2.13 2.13 0.0 0 0 86.38 136.51
  L 93.37 136.51
  A 2.38 2.38 0.0 0 0 95.75 134.13
  L 95.75 125.32
  A 0.58 0.58 0.0 0 1 96.24 124.75
  Z"
/>
<path fill="#ffffff" d="
  M 71.06 144.44
  C 74.21 145.71 75.00 158.06 69.14 155.99
  Q 39.80 145.62 27.91 118.39
  C 11.73 81.33 31.62 38.76 69.76 26.72
  C 74.31 25.29 74.81 36.91 70.63 38.62
  C 21.55 58.68 21.66 124.45 71.06 144.44
  Z"
/>
<path fill="#ffffff" d="
  M 111.29 27.15
  C 132.95 34.24 149.79 52.19 155.49 74.12
  C 164.57 109.06 145.17 144.57 110.92 155.91
  C 105.04 157.86 105.54 146.08 109.01 144.65
  C 158.20 124.46 158.81 58.16 108.58 38.29
  A 1.64 1.55 -4.3 0 1 107.84 37.69
  C 106.11 35.07 104.90 25.06 111.29 27.15
  Z"
/>
<path fill="#ffffff" d="
  M 95.75 125.32
  L 95.75 134.13
  A 2.38 2.38 0.0 0 1 93.37 136.51
  L 86.38 136.51
  A 2.13 2.13 0.0 0 1 84.25 134.38
  L 84.25 125.31
  A 0.52 0.52 0.0 0 0 83.79 124.79
  Q 67.35 122.73 64.21 107.02
  C 63.29 102.44 72.06 103.73 74.50 103.74
  A 1.69 1.68 85.8 0 1 76.15 105.17
  C 77.73 115.53 88.89 117.97 97.17 114.43
  C 104.26 111.41 105.05 100.62 96.99 97.78
  C 85.09 93.60 66.74 96.14 66.08 77.81
  C 65.68 66.64 73.01 59.56 83.64 57.92
  A 0.60 0.60 0.0 0 0 84.16 57.35
  C 84.27 54.83 84.37 52.24 84.17 49.76
  C 83.75 44.83 90.99 46.17 93.82 46.40
  A 1.44 1.44 0.0 0 1 94.68 46.80
  C 96.50 48.60 95.73 55.12 95.84 57.64
  A 0.62 0.61 4.1 0 0 96.35 58.22
  C 103.99 59.54 112.35 65.97 112.53 74.45
  A 2.25 2.24 -0.8 0 1 110.29 76.74
  L 103.46 76.76
  A 1.37 1.36 -24.7 0 1 102.58 76.44
  Q 101.18 75.29 100.28 72.72
  C 97.81 65.62 84.32 65.39 79.72 70.29
  C 75.58 74.71 78.00 82.35 84.24 83.58
  C 96.22 85.93 112.82 86.17 114.80 102.15
  C 116.23 113.73 107.56 123.01 96.24 124.75
  A 0.58 0.58 0.0 0 0 95.75 125.32
  Z"
/>
</svg>
